<svg width="507" height="178" viewBox="0 0 507 178" fill="none" xmlns="http://www.w3.org/2000/svg">
<path d="M3.04958 14.3037V13.0567C2.54321 13.0265 2.06706 12.9358 1.62115 12.7846C1.17524 12.6259 0.786013 12.4067 0.453469 12.1271L0.838918 11.1975C1.20169 11.4847 1.58714 11.7001 1.99526 11.8437C2.41094 11.9873 2.87953 12.0591 3.40102 12.0591C3.99809 12.0591 4.44022 11.9457 4.72742 11.7189C5.02217 11.4922 5.16955 11.2012 5.16955 10.846C5.16955 10.5437 5.06752 10.3056 4.86346 10.1318C4.6594 9.95042 4.31552 9.80682 3.83181 9.70101L2.66413 9.4516C1.98393 9.30045 1.47377 9.05482 1.13367 8.71472C0.793571 8.36706 0.62352 7.90603 0.62352 7.33164C0.62352 6.90084 0.721772 6.51917 0.918275 6.18663C1.12234 5.85408 1.40575 5.582 1.76853 5.37038C2.13131 5.15876 2.55832 5.0265 3.04958 4.9736V3.70388H3.97919V4.9736C4.3722 5.01138 4.75387 5.10964 5.1242 5.26835C5.50209 5.41951 5.82708 5.63113 6.09916 5.90321L5.72505 6.79881C5.43029 6.51161 5.09775 6.29999 4.72742 6.16395C4.35708 6.02035 3.94896 5.94855 3.50305 5.94855C2.98156 5.94855 2.5621 6.07326 2.24467 6.32267C1.9348 6.57207 1.77987 6.89706 1.77987 7.29763C1.77987 7.6075 1.87812 7.85312 2.07462 8.03451C2.27112 8.2159 2.58477 8.35572 3.01557 8.45397L4.18325 8.70338C4.9088 8.85454 5.44919 9.10016 5.80441 9.44027C6.15962 9.77281 6.33723 10.2149 6.33723 10.7667C6.33723 11.394 6.11806 11.9079 5.6797 12.3085C5.24135 12.7015 4.67451 12.9395 3.97919 13.0227V14.3037H3.04958ZM10.9242 13V11.3788H7.33044V10.5059L11.1282 5.00761H12.0919V10.3926H13.2595V11.3788H12.0919V13H10.9242ZM10.9242 10.3926V6.84416L8.49812 10.3926H10.9242ZM14.4001 13V5.00761H15.5451V9.8824H15.5678L17.9712 7.46768H19.3883L16.7355 10.1318L19.5923 13H18.1639L15.5678 10.4719H15.5451V13H14.4001Z" fill="#2B4146"/>
<path d="M3.04958 56.4658V55.2188C2.54321 55.1886 2.06706 55.0979 1.62115 54.9467C1.17524 54.788 0.786013 54.5688 0.453469 54.2892L0.838918 53.3596C1.20169 53.6468 1.58714 53.8622 1.99526 54.0058C2.41094 54.1494 2.87953 54.2212 3.40102 54.2212C3.99809 54.2212 4.44022 54.1078 4.72742 53.8811C5.02217 53.6543 5.16955 53.3633 5.16955 53.0081C5.16955 52.7058 5.06752 52.4677 4.86346 52.2939C4.6594 52.1125 4.31552 51.9689 3.83181 51.8631L2.66413 51.6137C1.98393 51.4626 1.47377 51.2169 1.13367 50.8768C0.793571 50.5292 0.62352 50.0681 0.62352 49.4937C0.62352 49.0629 0.721772 48.6813 0.918275 48.3487C1.12234 48.0162 1.40575 47.7441 1.76853 47.5325C2.13131 47.3209 2.55832 47.1886 3.04958 47.1357V45.866H3.97919V47.1357C4.3722 47.1735 4.75387 47.2717 5.1242 47.4305C5.50209 47.5816 5.82708 47.7932 6.09916 48.0653L5.72505 48.9609C5.43029 48.6737 5.09775 48.4621 4.72742 48.3261C4.35708 48.1825 3.94896 48.1107 3.50305 48.1107C2.98156 48.1107 2.5621 48.2354 2.24467 48.4848C1.9348 48.7342 1.77987 49.0592 1.77987 49.4597C1.77987 49.7696 1.87812 50.0152 2.07462 50.1966C2.27112 50.378 2.58477 50.5178 3.01557 50.6161L4.18325 50.8655C4.9088 51.0166 5.44919 51.2623 5.80441 51.6024C6.15962 51.9349 6.33723 52.3771 6.33723 52.9288C6.33723 53.5561 6.11806 54.07 5.6797 54.4706C5.24135 54.8636 4.67451 55.1016 3.97919 55.1848V56.4658H3.04958ZM10.0739 55.2641C9.53732 55.2641 9.02717 55.1848 8.54347 55.0261C8.05976 54.8598 7.65542 54.6293 7.33044 54.3345L7.73856 53.4276C8.09377 53.7148 8.46033 53.9264 8.83822 54.0624C9.21611 54.1985 9.61668 54.2665 10.0399 54.2665C10.5841 54.2665 10.996 54.1494 11.2756 53.9151C11.5628 53.6808 11.7064 53.3445 11.7064 52.9061C11.7064 52.4677 11.5628 52.1428 11.2756 51.9311C10.996 51.7195 10.5879 51.6137 10.0513 51.6137H8.81555V50.6274H9.93788C10.414 50.6274 10.7881 50.5065 11.0602 50.2646C11.3399 50.0228 11.4797 49.6902 11.4797 49.267C11.4797 48.8816 11.3512 48.5868 11.0942 48.3827C10.8373 48.1711 10.4707 48.0653 9.99457 48.0653C9.18588 48.0653 8.47922 48.3563 7.8746 48.9382L7.46648 48.0426C7.77635 47.7328 8.1618 47.4947 8.62282 47.3284C9.09141 47.1546 9.57889 47.0677 10.0853 47.0677C10.8864 47.0677 11.5099 47.2529 11.9558 47.6232C12.4017 47.986 12.6247 48.4923 12.6247 49.1423C12.6247 49.5807 12.5113 49.9661 12.2846 50.2987C12.0654 50.6312 11.7593 50.873 11.3663 51.0242C11.8425 51.1451 12.209 51.3794 12.466 51.7271C12.7229 52.0672 12.8514 52.4866 12.8514 52.9855C12.8514 53.6883 12.602 54.2438 12.1032 54.652C11.6119 55.0601 10.9355 55.2641 10.0739 55.2641ZM14.4001 55.1621V47.1697H15.5451V52.0445H15.5678L17.9712 49.6298H19.3883L16.7355 52.2939L19.5923 55.1621H18.1639L15.5678 52.634H15.5451V55.1621H14.4001Z" fill="#2B4146"/>
<path d="M3.04958 98.6279V97.3809C2.54321 97.3507 2.06706 97.26 1.62115 97.1088C1.17524 96.9501 0.786013 96.7309 0.453469 96.4513L0.838918 95.5217C1.20169 95.8089 1.58714 96.0243 1.99526 96.1679C2.41094 96.3115 2.87953 96.3833 3.40102 96.3833C3.99809 96.3833 4.44022 96.2699 4.72742 96.0432C5.02217 95.8164 5.16955 95.5255 5.16955 95.1702C5.16955 94.8679 5.06752 94.6299 4.86346 94.456C4.6594 94.2746 4.31552 94.131 3.83181 94.0252L2.66413 93.7758C1.98393 93.6247 1.47377 93.379 1.13367 93.0389C0.793571 92.6913 0.62352 92.2302 0.62352 91.6559C0.62352 91.2251 0.721772 90.8434 0.918275 90.5108C1.12234 90.1783 1.40575 89.9062 1.76853 89.6946C2.13131 89.483 2.55832 89.3507 3.04958 89.2978V88.0281H3.97919V89.2978C4.3722 89.3356 4.75387 89.4339 5.1242 89.5926C5.50209 89.7437 5.82708 89.9553 6.09916 90.2274L5.72505 91.123C5.43029 90.8358 5.09775 90.6242 4.72742 90.4882C4.35708 90.3446 3.94896 90.2728 3.50305 90.2728C2.98156 90.2728 2.5621 90.3975 2.24467 90.6469C1.9348 90.8963 1.77987 91.2213 1.77987 91.6218C1.77987 91.9317 1.87812 92.1773 2.07462 92.3587C2.27112 92.5401 2.58477 92.6799 3.01557 92.7782L4.18325 93.0276C4.9088 93.1788 5.44919 93.4244 5.80441 93.7645C6.15962 94.097 6.33723 94.5392 6.33723 95.0909C6.33723 95.7182 6.11806 96.2321 5.6797 96.6327C5.24135 97.0257 4.67451 97.2638 3.97919 97.3469V98.6279H3.04958ZM7.76123 97.3242V96.4513L10.4254 93.5944C10.7957 93.1939 11.0602 92.8311 11.2189 92.5061C11.3852 92.1811 11.4683 91.8524 11.4683 91.5198C11.4683 90.6582 10.962 90.2274 9.94922 90.2274C9.17832 90.2274 8.48678 90.5184 7.8746 91.1004L7.45514 90.2048C7.75745 89.91 8.1429 89.6757 8.61149 89.5019C9.08007 89.3205 9.56755 89.2298 10.0739 89.2298C10.8977 89.2298 11.5288 89.4187 11.9672 89.7966C12.4131 90.1745 12.636 90.7149 12.636 91.4178C12.636 91.8939 12.5189 92.3587 12.2846 92.8122C12.0579 93.2657 11.6989 93.7494 11.2076 94.2633L9.23501 96.3379H12.9535V97.3242H7.76123ZM14.4001 97.3242V89.3318H15.5451V94.2066H15.5678L17.9712 91.7919H19.3883L16.7355 94.456L19.5923 97.3242H18.1639L15.5678 94.7961H15.5451V97.3242H14.4001Z" fill="#2B4146"/>
<path d="M3.04958 140.79V139.543C2.54321 139.513 2.06706 139.422 1.62115 139.271C1.17524 139.112 0.786013 138.893 0.453469 138.613L0.838918 137.684C1.20169 137.971 1.58714 138.186 1.99526 138.33C2.41094 138.474 2.87953 138.545 3.40102 138.545C3.99809 138.545 4.44022 138.432 4.72742 138.205C5.02217 137.979 5.16955 137.688 5.16955 137.332C5.16955 137.03 5.06752 136.792 4.86346 136.618C4.6594 136.437 4.31552 136.293 3.83181 136.187L2.66413 135.938C1.98393 135.787 1.47377 135.541 1.13367 135.201C0.793571 134.853 0.62352 134.392 0.62352 133.818C0.62352 133.387 0.721772 133.005 0.918275 132.673C1.12234 132.34 1.40575 132.068 1.76853 131.857C2.13131 131.645 2.55832 131.513 3.04958 131.46V130.19H3.97919V131.46C4.3722 131.498 4.75387 131.596 5.1242 131.755C5.50209 131.906 5.82708 132.117 6.09916 132.39L5.72505 133.285C5.43029 132.998 5.09775 132.786 4.72742 132.65C4.35708 132.507 3.94896 132.435 3.50305 132.435C2.98156 132.435 2.5621 132.56 2.24467 132.809C1.9348 133.058 1.77987 133.383 1.77987 133.784C1.77987 134.094 1.87812 134.339 2.07462 134.521C2.27112 134.702 2.58477 134.842 3.01557 134.94L4.18325 135.19C4.9088 135.341 5.44919 135.586 5.80441 135.927C6.15962 136.259 6.33723 136.701 6.33723 137.253C6.33723 137.88 6.11806 138.394 5.6797 138.795C5.24135 139.188 4.67451 139.426 3.97919 139.509V140.79H3.04958ZM8.12401 139.486V138.5H9.93788V132.854L8.52079 133.739L8.04465 132.866L10.278 131.494H11.1056V138.5H12.8061V139.486H8.12401Z" fill="#2B4146"/>
<path d="M61.9849 172.007L61.8942 171.043L62.6311 170.998C63.3718 170.937 63.7421 170.514 63.7421 169.728V163.924H64.9098V169.728C64.9098 170.416 64.7322 170.949 64.3769 171.327C64.0217 171.704 63.4965 171.916 62.8011 171.961L61.9849 172.007ZM68.4116 172.018C68.0261 172.018 67.6823 171.942 67.3799 171.791C67.0776 171.64 66.8358 171.436 66.6544 171.179C66.4806 170.922 66.3936 170.631 66.3936 170.306C66.3936 169.898 66.4957 169.577 66.6997 169.343C66.9114 169.108 67.2552 168.938 67.7314 168.832C68.2151 168.727 68.865 168.674 69.6813 168.674H70.0667V168.379C70.0667 167.948 69.976 167.638 69.7947 167.449C69.6133 167.26 69.3147 167.166 68.8991 167.166C68.5816 167.166 68.2642 167.215 67.9468 167.313C67.6293 167.404 67.3044 167.551 66.9718 167.755L66.6204 166.951C66.9076 166.746 67.2666 166.584 67.6974 166.463C68.1282 166.342 68.5401 166.282 68.9331 166.282C69.6889 166.282 70.2481 166.463 70.6109 166.826C70.9737 167.181 71.1551 167.74 71.1551 168.504V171.916H70.0781V170.998C69.942 171.315 69.7304 171.565 69.4432 171.746C69.156 171.927 68.8121 172.018 68.4116 172.018ZM68.6383 171.202C69.0464 171.202 69.3865 171.058 69.6586 170.771C69.9307 170.484 70.0667 170.121 70.0667 169.683V169.377H69.6926C69.1409 169.377 68.7063 169.403 68.3889 169.456C68.079 169.509 67.8561 169.6 67.72 169.728C67.5916 169.849 67.5273 170.019 67.5273 170.238C67.5273 170.525 67.6256 170.76 67.8221 170.941C68.0186 171.115 68.2907 171.202 68.6383 171.202ZM72.7321 171.916V166.384H73.8431V167.302C74.0321 166.969 74.289 166.716 74.614 166.542C74.9466 166.369 75.3169 166.282 75.725 166.282C77.0325 166.282 77.6863 167.022 77.6863 168.504V171.916H76.5413V168.572C76.5413 168.096 76.4468 167.748 76.2578 167.529C76.0764 167.31 75.7893 167.2 75.3962 167.2C74.9352 167.2 74.5649 167.347 74.2852 167.642C74.0132 167.929 73.8771 168.311 73.8771 168.787V171.916H72.7321Z" fill="#2B4146"/>
<path d="M127.416 171.916V163.924H132.495V164.876H128.595V167.427H132.257V168.379H128.595V171.916H127.416ZM135.955 172.018C135.048 172.018 134.333 171.765 133.812 171.258C133.29 170.745 133.03 170.045 133.03 169.161C133.03 168.594 133.143 168.096 133.37 167.665C133.604 167.226 133.925 166.886 134.333 166.644C134.741 166.403 135.21 166.282 135.739 166.282C136.502 166.282 137.103 166.527 137.542 167.019C137.98 167.502 138.199 168.171 138.199 169.025V169.411H134.141C134.224 170.559 134.832 171.134 135.966 171.134C136.283 171.134 136.593 171.085 136.895 170.986C137.205 170.888 137.496 170.726 137.768 170.499L138.108 171.292C137.859 171.519 137.538 171.697 137.145 171.825C136.752 171.954 136.355 172.018 135.955 172.018ZM135.784 167.087C135.308 167.087 134.93 167.234 134.651 167.529C134.371 167.823 134.201 168.216 134.141 168.708H137.236C137.213 168.194 137.077 167.797 136.827 167.517C136.578 167.23 136.23 167.087 135.784 167.087ZM142.418 172.018C141.994 172.018 141.62 171.924 141.295 171.735C140.97 171.546 140.729 171.292 140.57 170.975V171.916H139.447V163.924H140.592V167.279C140.759 166.977 141.001 166.735 141.318 166.554C141.643 166.372 142.01 166.282 142.418 166.282C142.909 166.282 143.336 166.399 143.699 166.633C144.069 166.867 144.352 167.2 144.549 167.631C144.753 168.054 144.855 168.56 144.855 169.15C144.855 169.739 144.753 170.25 144.549 170.68C144.352 171.111 144.069 171.444 143.699 171.678C143.336 171.905 142.909 172.018 142.418 172.018ZM142.134 171.134C142.61 171.134 142.988 170.964 143.268 170.624C143.555 170.284 143.699 169.792 143.699 169.15C143.699 168.507 143.555 168.02 143.268 167.687C142.988 167.347 142.61 167.177 142.134 167.177C141.658 167.177 141.276 167.347 140.989 167.687C140.71 168.02 140.57 168.507 140.57 169.15C140.57 169.792 140.71 170.284 140.989 170.624C141.276 170.964 141.658 171.134 142.134 171.134Z" fill="#2B4146"/>
<path d="M194.078 171.916V163.924H195.064L198.023 169.445L200.97 163.924H201.934V171.916H200.88V166.055L198.374 170.692H197.66L195.143 166.078V171.916H194.078ZM205.463 172.018C205.078 172.018 204.734 171.942 204.432 171.791C204.129 171.64 203.888 171.436 203.706 171.179C203.532 170.922 203.445 170.631 203.445 170.306C203.445 169.898 203.547 169.577 203.751 169.343C203.963 169.108 204.307 168.938 204.783 168.832C205.267 168.727 205.917 168.674 206.733 168.674H207.118V168.379C207.118 167.948 207.028 167.638 206.846 167.449C206.665 167.26 206.366 167.166 205.951 167.166C205.633 167.166 205.316 167.215 204.999 167.313C204.681 167.404 204.356 167.551 204.024 167.755L203.672 166.951C203.959 166.746 204.318 166.584 204.749 166.463C205.18 166.342 205.592 166.282 205.985 166.282C206.741 166.282 207.3 166.463 207.663 166.826C208.025 167.181 208.207 167.74 208.207 168.504V171.916H207.13V170.998C206.994 171.315 206.782 171.565 206.495 171.746C206.208 171.927 205.864 172.018 205.463 172.018ZM205.69 171.202C206.098 171.202 206.438 171.058 206.71 170.771C206.982 170.484 207.118 170.121 207.118 169.683V169.377H206.744C206.193 169.377 205.758 169.403 205.441 169.456C205.131 169.509 204.908 169.6 204.772 169.728C204.643 169.849 204.579 170.019 204.579 170.238C204.579 170.525 204.677 170.76 204.874 170.941C205.07 171.115 205.342 171.202 205.69 171.202ZM209.784 171.916V166.384H210.895V167.37C211.182 166.712 211.779 166.346 212.686 166.27L213.06 166.248L213.14 167.223L212.448 167.291C211.443 167.389 210.94 167.907 210.94 168.844V171.916H209.784Z" fill="#2B4146"/>
<path d="M261.508 171.916L265.067 163.924H266.042L269.614 171.916H268.412L267.573 169.966H263.526L262.698 171.916H261.508ZM265.544 165.227L263.945 169.014H267.176L265.566 165.227H265.544ZM270.536 173.957V166.384H271.658V167.325C271.817 167.007 272.058 166.754 272.383 166.565C272.708 166.376 273.083 166.282 273.506 166.282C273.997 166.282 274.424 166.399 274.787 166.633C275.157 166.867 275.441 167.2 275.637 167.631C275.841 168.054 275.943 168.56 275.943 169.15C275.943 169.739 275.841 170.25 275.637 170.68C275.441 171.111 275.157 171.444 274.787 171.678C274.424 171.905 273.997 172.018 273.506 172.018C273.098 172.018 272.731 171.931 272.406 171.757C272.089 171.576 271.847 171.33 271.681 171.02V173.957H270.536ZM273.222 171.134C273.698 171.134 274.076 170.964 274.356 170.624C274.643 170.284 274.787 169.792 274.787 169.15C274.787 168.507 274.643 168.02 274.356 167.687C274.076 167.347 273.698 167.177 273.222 167.177C272.746 167.177 272.365 167.347 272.077 167.687C271.798 168.02 271.658 168.507 271.658 169.15C271.658 169.792 271.798 170.284 272.077 170.624C272.365 170.964 272.746 171.134 273.222 171.134ZM277.233 171.916V166.384H278.344V167.37C278.632 166.712 279.229 166.346 280.136 166.27L280.51 166.248L280.589 167.223L279.898 167.291C278.892 167.389 278.39 167.907 278.39 168.844V171.916H277.233Z" fill="#2B4146"/>
<path d="M329.457 171.916V163.924H330.67L333.504 169.15L336.327 163.924H337.518V171.916H336.202V166.531L333.912 170.703H333.062L330.772 166.554V171.916H329.457ZM340.966 172.029C340.565 172.029 340.206 171.954 339.889 171.803C339.579 171.644 339.333 171.432 339.152 171.168C338.978 170.903 338.891 170.605 338.891 170.272C338.891 169.864 338.997 169.543 339.209 169.309C339.42 169.067 339.764 168.893 340.24 168.787C340.716 168.681 341.355 168.628 342.156 168.628H342.553V168.39C342.553 168.012 342.47 167.74 342.303 167.574C342.137 167.408 341.858 167.325 341.465 167.325C341.155 167.325 340.837 167.374 340.512 167.472C340.187 167.563 339.859 167.706 339.526 167.903L339.118 166.939C339.314 166.803 339.545 166.686 339.809 166.588C340.082 166.482 340.365 166.403 340.66 166.35C340.962 166.289 341.245 166.259 341.51 166.259C342.319 166.259 342.919 166.448 343.312 166.826C343.705 167.196 343.902 167.774 343.902 168.56V171.916H342.576V171.032C342.447 171.342 342.243 171.587 341.963 171.769C341.684 171.942 341.351 172.029 340.966 172.029ZM341.261 171.054C341.631 171.054 341.937 170.926 342.179 170.669C342.428 170.412 342.553 170.087 342.553 169.694V169.445H342.167C341.457 169.445 340.962 169.501 340.682 169.615C340.41 169.72 340.274 169.917 340.274 170.204C340.274 170.454 340.361 170.658 340.535 170.816C340.709 170.975 340.951 171.054 341.261 171.054ZM345.784 173.957L346.804 171.689L344.503 166.372H346.011L347.564 170.25L349.151 166.372H350.579L347.246 173.957H345.784Z" fill="#017189"/>
<path d="M398.416 172.007L398.326 171.043L399.062 170.998C399.803 170.937 400.173 170.514 400.173 169.728V163.924H401.341V169.728C401.341 170.416 401.164 170.949 400.808 171.327C400.453 171.704 399.928 171.916 399.233 171.961L398.416 172.007ZM405.047 172.018C403.709 172.018 403.04 171.274 403.04 169.785V166.384H404.185V169.796C404.185 170.242 404.276 170.571 404.458 170.782C404.639 170.994 404.926 171.1 405.319 171.1C405.75 171.1 406.098 170.956 406.362 170.669C406.634 170.382 406.77 169.996 406.77 169.513V166.384H407.915V171.916H406.804V171.032C406.623 171.357 406.381 171.602 406.079 171.769C405.776 171.935 405.432 172.018 405.047 172.018ZM409.529 171.916V166.384H410.64V167.302C410.829 166.969 411.086 166.716 411.411 166.542C411.743 166.369 412.114 166.282 412.522 166.282C413.829 166.282 414.483 167.022 414.483 168.504V171.916H413.338V168.572C413.338 168.096 413.244 167.748 413.055 167.529C412.873 167.31 412.586 167.2 412.193 167.2C411.732 167.2 411.362 167.347 411.082 167.642C410.81 167.929 410.674 168.311 410.674 168.787V171.916H409.529Z" fill="#2B4146"/>
<path d="M463.435 172.007L463.345 171.043L464.082 170.998C464.822 170.937 465.193 170.514 465.193 169.728V163.924H466.36V169.728C466.36 170.416 466.183 170.949 465.827 171.327C465.472 171.704 464.947 171.916 464.252 171.961L463.435 172.007ZM470.066 172.018C468.728 172.018 468.059 171.274 468.059 169.785V166.384H469.204V169.796C469.204 170.242 469.295 170.571 469.477 170.782C469.658 170.994 469.945 171.1 470.338 171.1C470.769 171.1 471.117 170.956 471.381 170.669C471.653 170.382 471.789 169.996 471.789 169.513V166.384H472.934V171.916H471.823V171.032C471.642 171.357 471.4 171.602 471.098 171.769C470.795 171.935 470.452 172.018 470.066 172.018ZM476.35 172.018C475.746 172.018 475.292 171.848 474.99 171.508C474.695 171.168 474.548 170.669 474.548 170.011V163.924H475.693V169.943C475.693 170.692 475.999 171.066 476.611 171.066C476.702 171.066 476.785 171.062 476.861 171.054C476.944 171.047 477.027 171.032 477.11 171.009L477.087 171.927C476.83 171.988 476.585 172.018 476.35 172.018Z" fill="#2B4146"/>
<line x1="68.3298" y1="1.53071" x2="68.3298" y2="147.078" stroke="#F3F4F6" stroke-width="1.06142" stroke-linecap="round" stroke-dasharray="8.49 8.49"/>
<line x1="136.373" y1="1.53071" x2="136.373" y2="147.078" stroke="#F3F4F6" stroke-width="1.06142" stroke-linecap="round" stroke-dasharray="8.49 8.49"/>
<line x1="202.964" y1="1.53071" x2="202.964" y2="147.078" stroke="#F3F4F6" stroke-width="1.06142" stroke-linecap="round" stroke-dasharray="8.49 8.49"/>
<line x1="271.007" y1="1.53071" x2="271.007" y2="147.078" stroke="#F3F4F6" stroke-width="1.06142" stroke-linecap="round" stroke-dasharray="8.49 8.49"/>
<line x1="405.641" y1="1.53071" x2="405.641" y2="147.078" stroke="#F3F4F6" stroke-width="1.06142" stroke-linecap="round" stroke-dasharray="8.49 8.49"/>
<line x1="472.233" y1="1.53071" x2="472.233" y2="147.078" stroke="#F3F4F6" stroke-width="1.06142" stroke-linecap="round" stroke-dasharray="8.49 8.49"/>
<path d="M328.888 80.5211C328.888 78.5088 328.888 77.5027 329.216 76.709C329.655 75.6508 330.496 74.81 331.554 74.3717C332.347 74.043 333.354 74.043 335.366 74.043H344.543C346.555 74.043 347.562 74.043 348.355 74.3717C349.413 74.81 350.254 75.6508 350.693 76.709C351.021 77.5027 351.021 78.5088 351.021 80.5211V167.885H328.888V80.5211Z" fill="url(#paint0_linear_312_1314)"/>
<path d="M135.22 51.8649C113.518 51.8649 66.6204 2.98924 34.5015 1.99805V149.604H505V15.3792C491.979 17.3616 487.734 53.5403 472.881 53.5403C455.52 53.5403 418.32 36.1509 403.562 36.4062C382.728 36.7666 357.764 82.4763 339.534 82.7824C321.305 83.0885 301.002 45.1151 270.619 45.1151C237.632 46.1063 220.926 23.9395 203.564 23.9395C184.467 23.9395 152.581 51.8649 135.22 51.8649Z" fill="url(#paint1_linear_312_1314)"/>
<path d="M34.5015 1.99805C66.6204 2.99538 114.237 52.1735 135.939 52.1735C153.301 52.1735 183.747 24.0752 202.845 24.0752C220.207 24.0752 237.632 46.3792 270.619 45.3819C301.002 45.3819 321.305 83.0885 339.534 82.7805C357.764 82.4725 384.167 36.9818 405.001 36.6191C419.758 36.3622 453.106 54.1805 470.468 54.1805C485.321 54.1805 491.979 17.4567 505 15.462" stroke="#008AA8" stroke-width="3.18425" stroke-linecap="round"/>
<line x1="340.359" y1="24.3359" x2="340.359" y2="85.2063" stroke="#008AA8" stroke-width="0.269922"/>
<path d="M346.162 84.1925C346.162 87.225 343.536 89.7397 340.224 89.7397C336.912 89.7397 334.286 87.225 334.286 84.1925C334.286 81.1601 336.912 78.6453 340.224 78.6453C343.536 78.6453 346.162 81.1601 346.162 84.1925Z" fill="white" stroke="#008AA8" stroke-width="1.07969"/>
<rect x="311.613" y="12.1602" width="73.9587" height="19.7829" rx="5.26348" fill="#001B21"/>
<path d="M321.68 26.7178V25.4707C321.174 25.4405 320.698 25.3498 320.252 25.1987C319.806 25.04 319.417 24.8208 319.084 24.5411L319.47 23.6115C319.833 23.8987 320.218 24.1141 320.626 24.2577C321.042 24.4013 321.51 24.4731 322.032 24.4731C322.629 24.4731 323.071 24.3597 323.358 24.133C323.653 23.9063 323.8 23.6153 323.8 23.2601C323.8 22.9578 323.698 22.7197 323.494 22.5459C323.29 22.3645 322.946 22.2209 322.463 22.1151L321.295 21.8657C320.615 21.7145 320.105 21.4689 319.765 21.1288C319.424 20.7811 319.254 20.3201 319.254 19.7457C319.254 19.3149 319.353 18.9332 319.549 18.6007C319.753 18.2681 320.037 17.9961 320.399 17.7844C320.762 17.5728 321.189 17.4406 321.68 17.3877V16.1179H322.61V17.3877C323.003 17.4254 323.385 17.5237 323.755 17.6824C324.133 17.8336 324.458 18.0452 324.73 18.3173L324.356 19.2129C324.061 18.9257 323.729 18.7141 323.358 18.578C322.988 18.4344 322.58 18.3626 322.134 18.3626C321.612 18.3626 321.193 18.4873 320.876 18.7367C320.566 18.9861 320.411 19.3111 320.411 19.7117C320.411 20.0216 320.509 20.2672 320.705 20.4486C320.902 20.63 321.216 20.7698 321.646 20.868L322.814 21.1174C323.54 21.2686 324.08 21.5142 324.435 21.8543C324.79 22.1869 324.968 22.629 324.968 23.1807C324.968 23.808 324.749 24.322 324.311 24.7225C323.872 25.1155 323.305 25.3536 322.61 25.4367V26.7178H321.68ZM328.829 25.5161C327.915 25.5161 327.201 25.3196 326.687 24.9266C326.18 24.5336 325.927 23.9856 325.927 23.2828C325.927 22.7915 326.056 22.3758 326.313 22.0357C326.577 21.6881 326.921 21.45 327.344 21.3215C326.966 21.1628 326.668 20.9209 326.449 20.596C326.23 20.2634 326.12 19.8817 326.12 19.4509C326.12 18.7859 326.366 18.2644 326.857 17.8865C327.348 17.5086 328.006 17.3196 328.829 17.3196C329.661 17.3196 330.322 17.5086 330.813 17.8865C331.305 18.2644 331.55 18.7859 331.55 19.4509C331.55 19.8817 331.437 20.2634 331.21 20.596C330.991 20.9285 330.692 21.1703 330.315 21.3215C330.745 21.45 331.089 21.6881 331.346 22.0357C331.603 22.3758 331.732 22.7915 331.732 23.2828C331.732 23.9856 331.475 24.5336 330.961 24.9266C330.454 25.3196 329.744 25.5161 328.829 25.5161ZM328.829 20.902C329.336 20.902 329.729 20.7849 330.009 20.5506C330.296 20.3088 330.439 19.98 330.439 19.5643C330.439 19.1562 330.296 18.835 330.009 18.6007C329.729 18.3664 329.336 18.2492 328.829 18.2492C328.323 18.2492 327.93 18.3664 327.65 18.6007C327.371 18.835 327.231 19.1562 327.231 19.5643C327.231 19.98 327.371 20.3088 327.65 20.5506C327.93 20.7849 328.323 20.902 328.829 20.902ZM328.829 24.5865C330.031 24.5865 330.632 24.1255 330.632 23.2034C330.632 22.2889 330.031 21.8317 328.829 21.8317C328.24 21.8317 327.79 21.945 327.48 22.1718C327.178 22.3985 327.027 22.7424 327.027 23.2034C327.027 24.1255 327.628 24.5865 328.829 24.5865ZM335.627 25.5161C334.713 25.5161 333.998 25.3196 333.484 24.9266C332.978 24.5336 332.725 23.9856 332.725 23.2828C332.725 22.7915 332.853 22.3758 333.11 22.0357C333.375 21.6881 333.719 21.45 334.142 21.3215C333.764 21.1628 333.466 20.9209 333.246 20.596C333.027 20.2634 332.918 19.8817 332.918 19.4509C332.918 18.7859 333.163 18.2644 333.655 17.8865C334.146 17.5086 334.803 17.3196 335.627 17.3196C336.458 17.3196 337.12 17.5086 337.611 17.8865C338.102 18.2644 338.348 18.7859 338.348 19.4509C338.348 19.8817 338.235 20.2634 338.008 20.596C337.789 20.9285 337.49 21.1703 337.112 21.3215C337.543 21.45 337.887 21.6881 338.144 22.0357C338.401 22.3758 338.529 22.7915 338.529 23.2828C338.529 23.9856 338.272 24.5336 337.758 24.9266C337.252 25.3196 336.542 25.5161 335.627 25.5161ZM335.627 20.902C336.133 20.902 336.526 20.7849 336.806 20.5506C337.093 20.3088 337.237 19.98 337.237 19.5643C337.237 19.1562 337.093 18.835 336.806 18.6007C336.526 18.3664 336.133 18.2492 335.627 18.2492C335.121 18.2492 334.728 18.3664 334.448 18.6007C334.168 18.835 334.029 19.1562 334.029 19.5643C334.029 19.98 334.168 20.3088 334.448 20.5506C334.728 20.7849 335.121 20.902 335.627 20.902ZM335.627 24.5865C336.829 24.5865 337.43 24.1255 337.43 23.2034C337.43 22.2889 336.829 21.8317 335.627 21.8317C335.038 21.8317 334.588 21.945 334.278 22.1718C333.976 22.3985 333.825 22.7424 333.825 23.2034C333.825 24.1255 334.425 24.5865 335.627 24.5865ZM340.271 26.8085L339.772 26.423C339.946 26.2341 340.074 26.0603 340.157 25.9015C340.24 25.7428 340.293 25.5803 340.316 25.4141H339.693V24.065H341.042V24.9833C341.042 25.3309 340.985 25.6484 340.872 25.9356C340.758 26.2303 340.558 26.5213 340.271 26.8085ZM345.398 25.5161C344.431 25.5161 343.683 25.1722 343.154 24.4845C342.632 23.7967 342.371 22.8331 342.371 21.5936C342.371 20.2256 342.666 19.1713 343.256 18.4306C343.845 17.69 344.661 17.3196 345.704 17.3196C346.113 17.3196 346.524 17.4028 346.94 17.569C347.356 17.7278 347.704 17.9545 347.983 18.2492L347.575 19.1335C347.303 18.8614 347.001 18.6574 346.668 18.5213C346.343 18.3853 346.014 18.3173 345.682 18.3173C344.979 18.3173 344.439 18.5742 344.061 19.0882C343.69 19.5945 343.505 20.3541 343.505 21.3668V21.8203C343.656 21.3593 343.917 21.0003 344.287 20.7433C344.665 20.4788 345.1 20.3465 345.591 20.3465C346.06 20.3465 346.472 20.4561 346.827 20.6753C347.19 20.8945 347.473 21.1968 347.677 21.5822C347.881 21.9601 347.983 22.3947 347.983 22.886C347.983 23.3999 347.874 23.8572 347.654 24.2577C347.435 24.6507 347.129 24.9606 346.736 25.1873C346.351 25.4065 345.905 25.5161 345.398 25.5161ZM345.33 24.5638C345.791 24.5638 346.166 24.4127 346.453 24.1103C346.74 23.808 346.883 23.415 346.883 22.9313C346.883 22.4476 346.74 22.0546 346.453 21.7523C346.166 21.45 345.791 21.2988 345.33 21.2988C344.869 21.2988 344.495 21.45 344.208 21.7523C343.921 22.0546 343.777 22.4476 343.777 22.9313C343.777 23.415 343.921 23.808 344.208 24.1103C344.495 24.4127 344.869 24.5638 345.33 24.5638ZM351.913 25.5161C350.983 25.5161 350.273 25.1647 349.781 24.4618C349.298 23.7513 349.056 22.7348 349.056 21.4122C349.056 20.0669 349.298 19.0504 349.781 18.3626C350.273 17.6673 350.983 17.3196 351.913 17.3196C352.85 17.3196 353.56 17.6673 354.044 18.3626C354.528 19.0504 354.769 20.0631 354.769 21.4009C354.769 22.731 354.524 23.7513 354.033 24.4618C353.549 25.1647 352.842 25.5161 351.913 25.5161ZM351.913 24.5411C352.487 24.5411 352.914 24.2879 353.194 23.7816C353.473 23.2752 353.613 22.4816 353.613 21.4009C353.613 20.3201 353.473 19.5341 353.194 19.0428C352.922 18.544 352.495 18.2946 351.913 18.2946C351.338 18.2946 350.911 18.544 350.632 19.0428C350.352 19.5416 350.212 20.3276 350.212 21.4009C350.212 22.4816 350.352 23.2752 350.632 23.7816C350.911 24.2879 351.338 24.5411 351.913 24.5411ZM358.71 25.5161C357.781 25.5161 357.07 25.1647 356.579 24.4618C356.095 23.7513 355.853 22.7348 355.853 21.4122C355.853 20.0669 356.095 19.0504 356.579 18.3626C357.07 17.6673 357.781 17.3196 358.71 17.3196C359.647 17.3196 360.358 17.6673 360.841 18.3626C361.325 19.0504 361.567 20.0631 361.567 21.4009C361.567 22.731 361.321 23.7513 360.83 24.4618C360.346 25.1647 359.64 25.5161 358.71 25.5161ZM358.71 24.5411C359.285 24.5411 359.712 24.2879 359.991 23.7816C360.271 23.2752 360.411 22.4816 360.411 21.4009C360.411 20.3201 360.271 19.5341 359.991 19.0428C359.719 18.544 359.292 18.2946 358.71 18.2946C358.136 18.2946 357.709 18.544 357.429 19.0428C357.149 19.5416 357.01 20.3276 357.01 21.4009C357.01 22.4816 357.149 23.2752 357.429 23.7816C357.709 24.2879 358.136 24.5411 358.71 24.5411ZM362.776 25.4141V24.065H364.125V25.4141H362.776ZM368.198 25.5161C367.268 25.5161 366.558 25.1647 366.067 24.4618C365.583 23.7513 365.341 22.7348 365.341 21.4122C365.341 20.0669 365.583 19.0504 366.067 18.3626C366.558 17.6673 367.268 17.3196 368.198 17.3196C369.135 17.3196 369.846 17.6673 370.329 18.3626C370.813 19.0504 371.055 20.0631 371.055 21.4009C371.055 22.731 370.809 23.7513 370.318 24.4618C369.834 25.1647 369.128 25.5161 368.198 25.5161ZM368.198 24.5411C368.772 24.5411 369.199 24.2879 369.479 23.7816C369.759 23.2752 369.899 22.4816 369.899 21.4009C369.899 20.3201 369.759 19.5341 369.479 19.0428C369.207 18.544 368.78 18.2946 368.198 18.2946C367.624 18.2946 367.197 18.544 366.917 19.0428C366.637 19.5416 366.498 20.3276 366.498 21.4009C366.498 22.4816 366.637 23.2752 366.917 23.7816C367.197 24.2879 367.624 24.5411 368.198 24.5411ZM374.996 25.5161C374.066 25.5161 373.356 25.1647 372.864 24.4618C372.381 23.7513 372.139 22.7348 372.139 21.4122C372.139 20.0669 372.381 19.0504 372.864 18.3626C373.356 17.6673 374.066 17.3196 374.996 17.3196C375.933 17.3196 376.643 17.6673 377.127 18.3626C377.611 19.0504 377.853 20.0631 377.853 21.4009C377.853 22.731 377.607 23.7513 377.116 24.4618C376.632 25.1647 375.925 25.5161 374.996 25.5161ZM374.996 24.5411C375.57 24.5411 375.997 24.2879 376.277 23.7816C376.556 23.2752 376.696 22.4816 376.696 21.4009C376.696 20.3201 376.556 19.5341 376.277 19.0428C376.005 18.544 375.578 18.2946 374.996 18.2946C374.421 18.2946 373.994 18.544 373.715 19.0428C373.435 19.5416 373.295 20.3276 373.295 21.4009C373.295 22.4816 373.435 23.2752 373.715 23.7816C373.994 24.2879 374.421 24.5411 374.996 24.5411Z" fill="white"/>
<defs>
<linearGradient id="paint0_linear_312_1314" x1="339.955" y1="46.2609" x2="339.955" y2="167.885" gradientUnits="userSpaceOnUse">
<stop stop-color="#2FA2B9" stop-opacity="0.2"/>
<stop offset="1" stop-color="#2FA2B9" stop-opacity="0"/>
</linearGradient>
<linearGradient id="paint1_linear_312_1314" x1="269.027" y1="-56.3462" x2="269.37" y2="149.605" gradientUnits="userSpaceOnUse">
<stop stop-color="#2FA2B9" stop-opacity="0.12"/>
<stop offset="1" stop-color="#2FA2B9" stop-opacity="0"/>
</linearGradient>
</defs>
</svg>
